<svg xmlns="http://www.w3.org/2000/svg" id="Capa_1" viewBox="0 0 491.6 491.6" width="512" height="512"><path id="XMLID_378_" d="M433.258 59.107H58.342C26.173 59.107 0 84.248 0 115.145v261.312c0 30.904 26.173 56.037 58.342 56.037h374.916c32.168 0 58.342-25.133 58.342-56.037V115.145c0-30.897-26.174-56.038-58.342-56.038zm-101.397 80.891c0-10.975 8.894-19.866 19.867-19.866h57.262c10.974 0 19.866 8.891 19.866 19.866v79.113c0 10.974-8.893 19.866-19.866 19.866h-57.262c-10.974 0-19.867-8.893-19.867-19.866v-79.113zm-157.09 157.145c0-9.052 7.339-16.392 16.393-16.392h31.417c9.052 0 16.393 7.34 16.393 16.392 0 9.053-7.34 16.393-16.393 16.393h-31.417c-9.054 0-16.393-7.339-16.393-16.393zm168.024 79.234H217.113c-9.052 0-16.392-7.341-16.392-16.392 0-9.052 7.34-16.393 16.392-16.393h125.682c9.052 0 16.393 7.341 16.393 16.393 0 9.051-7.341 16.392-16.393 16.392zm80.594-62.841H279.954c-9.052 0-16.392-7.339-16.392-16.393 0-9.052 7.34-16.392 16.392-16.392h143.435c9.052 0 16.393 7.34 16.393 16.392 0 9.054-7.341 16.393-16.393 16.393z" fill="#FFF"/></svg>